<?xml version="1.0" encoding="utf-8" standalone="no"?><!DOCTYPE svg PUBLIC "-//W3C//DTD SVG 20010904//EN" "http://www.w3.org/TR/2001/REC-SVG-20010904/DTD/svg10.dtd"><svg xmlns="http://www.w3.org/2000/svg" width="1156" height="681" xmlns:xlink="http://www.w3.org/1999/xlink"><source><![CDATA[用户->黑客: {我们聊点其他的...我们以后使用\n对称算法A加密数据，这是秘钥A_KEY}
黑客->黑客: 没有私钥，只能看到密文\n{...(上面内容)}看不懂
黑客->服务端: 原封不动发送\n{...(上面内容)}
服务端->服务端:使用私钥解密\n{...(上面内容)} = (上面内容)\n从而知道客户之后的数据用A算法和A_KEY加密
服务端->服务端:使用A算法用A_KEY 对内容'好的！'\n进行加密 = [好的！]
服务端->黑客:[好的！]
黑客->黑客: 我也有服务端的公钥，\n解密[好的！] ??? 乱码，因为加密算法改变
黑客->黑客: 解密乱码，预计算法改变，\n在多次尝试后发现用A算法加密
黑客->黑客: 但没有A_KEY
黑客->用户: 没办发 只能原封不动发送[好的！]
用户->用户: 使用A算法和A_KEY解密 [好的！] = 好的！]]></source><desc></desc><defs><marker viewBox="0 0 5 5" markerWidth="5" markerHeight="5" orient="auto" refX="5" refY="2.5" id="markerArrowBlock"><path d="M 0 0 L 5 2.5 L 0 5 z"></path></marker><marker viewBox="0 0 9.6 16" markerWidth="4" markerHeight="16" orient="auto" refX="9.6" refY="8" id="markerArrowOpen"><path d="M 9.6,8 1.92,16 0,13.7 5.76,8 0,2.286 1.92,0 9.6,8 z"></path></marker></defs><g class="title"></g><g class="actor"><rect x="10" y="20" width="52" height="36" stroke="#000000" fill="#ffffff" style="stroke-width: 2;"></rect><text x="20" y="44" style="font-size: 16px; font-family: &quot;Andale Mono&quot;, monospace;"><tspan x="20">用户</tspan></text></g><g class="actor"><rect x="10" y="625.515625" width="52" height="36" stroke="#000000" fill="#ffffff" style="stroke-width: 2;"></rect><text x="20" y="649.515625" style="font-size: 16px; font-family: &quot;Andale Mono&quot;, monospace;"><tspan x="20">用户</tspan></text></g><line x1="36" x2="36" y1="56" y2="625.515625" stroke="#000000" fill="none" style="stroke-width: 2;"></line><g class="actor"><rect x="354" y="20" width="52" height="36" stroke="#000000" fill="#ffffff" style="stroke-width: 2;"></rect><text x="364" y="44" style="font-size: 16px; font-family: &quot;Andale Mono&quot;, monospace;"><tspan x="364">黑客</tspan></text></g><g class="actor"><rect x="354" y="625.515625" width="52" height="36" stroke="#000000" fill="#ffffff" style="stroke-width: 2;"></rect><text x="364" y="649.515625" style="font-size: 16px; font-family: &quot;Andale Mono&quot;, monospace;"><tspan x="364">黑客</tspan></text></g><line x1="380" x2="380" y1="56" y2="625.515625" stroke="#000000" fill="none" style="stroke-width: 2;"></line><g class="actor"><rect x="698" y="20" width="68" height="36" stroke="#000000" fill="#ffffff" style="stroke-width: 2;"></rect><text x="708" y="44" style="font-size: 16px; font-family: &quot;Andale Mono&quot;, monospace;"><tspan x="708">服务端</tspan></text></g><g class="actor"><rect x="698" y="625.515625" width="68" height="36" stroke="#000000" fill="#ffffff" style="stroke-width: 2;"></rect><text x="708" y="649.515625" style="font-size: 16px; font-family: &quot;Andale Mono&quot;, monospace;"><tspan x="708">服务端</tspan></text></g><line x1="732" x2="732" y1="56" y2="625.515625" stroke="#000000" fill="none" style="stroke-width: 2;"></line><g class="signal"><text x="76" y="77.40625" style="font-size: 16px; font-family: &quot;Andale Mono&quot;, monospace;"><tspan x="76">{我们聊点其他的...我们以后使用</tspan><tspan dy="1.2em" x="76">对称算法A加密数据，这是秘钥A_KEY}</tspan></text><line x1="36" x2="380" y1="111.1875" y2="111.1875" stroke="#000000" fill="none" style="stroke-width: 2; marker-end: url(&quot;#markerArrowBlock&quot;);"></line></g><g class="signal"><text x="405" y="153.78125" style="font-size: 16px; font-family: &quot;Andale Mono&quot;, monospace;"><tspan x="405">没有私钥，只能看到密文</tspan><tspan dy="1.2em" x="405">{...(上面内容)}看不懂</tspan></text><line x1="380" x2="400" y1="131.1875" y2="131.1875" stroke="#000000" fill="none" style="stroke-width: 2;"></line><line x1="400" x2="400" y1="131.1875" y2="171.375" stroke="#000000" fill="none" style="stroke-width: 2;"></line><line x1="400" x2="380" y1="171.375" y2="171.375" stroke="#000000" fill="none" style="stroke-width: 2; marker-end: url(&quot;#markerArrowBlock&quot;);"></line></g><g class="signal"><text x="496" y="187.78125" style="font-size: 16px; font-family: &quot;Andale Mono&quot;, monospace;"><tspan x="496">原封不动发送</tspan><tspan dy="1.2em" x="496">{...(上面内容)}</tspan></text><line x1="380" x2="732" y1="221.5625" y2="221.5625" stroke="#000000" fill="none" style="stroke-width: 2; marker-end: url(&quot;#markerArrowBlock&quot;);"></line></g><g class="signal"><text x="757" y="273.7578125" style="font-size: 16px; font-family: &quot;Andale Mono&quot;, monospace;"><tspan x="757">使用私钥解密</tspan><tspan dy="1.2em" x="757">{...(上面内容)} = (上面内容)</tspan><tspan dy="1.2em" x="757">从而知道客户之后的数据用A算法和A_KEY加密</tspan></text><line x1="732" x2="752" y1="241.5625" y2="241.5625" stroke="#000000" fill="none" style="stroke-width: 2;"></line><line x1="752" x2="752" y1="241.5625" y2="300.953125" stroke="#000000" fill="none" style="stroke-width: 2;"></line><line x1="752" x2="732" y1="300.953125" y2="300.953125" stroke="#000000" fill="none" style="stroke-width: 2; marker-end: url(&quot;#markerArrowBlock&quot;);"></line></g><g class="signal"><text x="757" y="338.546875" style="font-size: 16px; font-family: &quot;Andale Mono&quot;, monospace;"><tspan x="757">使用A算法用A_KEY 对内容'好的！'</tspan><tspan dy="1.2em" x="757">进行加密 = [好的！]</tspan></text><line x1="732" x2="752" y1="315.953125" y2="315.953125" stroke="#000000" fill="none" style="stroke-width: 2;"></line><line x1="752" x2="752" y1="315.953125" y2="356.140625" stroke="#000000" fill="none" style="stroke-width: 2;"></line><line x1="752" x2="732" y1="356.140625" y2="356.140625" stroke="#000000" fill="none" style="stroke-width: 2; marker-end: url(&quot;#markerArrowBlock&quot;);"></line></g><g class="signal"><text x="524" y="382.140625" style="font-size: 16px; font-family: &quot;Andale Mono&quot;, monospace;"><tspan x="524">[好的！]</tspan></text><line x1="732" x2="380" y1="387.140625" y2="387.140625" stroke="#000000" fill="none" style="stroke-width: 2; marker-end: url(&quot;#markerArrowBlock&quot;);"></line></g><g class="signal"><text x="405" y="429.734375" style="font-size: 16px; font-family: &quot;Andale Mono&quot;, monospace;"><tspan x="405">我也有服务端的公钥，</tspan><tspan dy="1.2em" x="405">解密[好的！] ??? 乱码，因为加密算法改变</tspan></text><line x1="380" x2="400" y1="407.140625" y2="407.140625" stroke="#000000" fill="none" style="stroke-width: 2;"></line><line x1="400" x2="400" y1="407.140625" y2="447.328125" stroke="#000000" fill="none" style="stroke-width: 2;"></line><line x1="400" x2="380" y1="447.328125" y2="447.328125" stroke="#000000" fill="none" style="stroke-width: 2; marker-end: url(&quot;#markerArrowBlock&quot;);"></line></g><g class="signal"><text x="405" y="484.921875" style="font-size: 16px; font-family: &quot;Andale Mono&quot;, monospace;"><tspan x="405">解密乱码，预计算法改变，</tspan><tspan dy="1.2em" x="405">在多次尝试后发现用A算法加密</tspan></text><line x1="380" x2="400" y1="462.328125" y2="462.328125" stroke="#000000" fill="none" style="stroke-width: 2;"></line><line x1="400" x2="400" y1="462.328125" y2="502.515625" stroke="#000000" fill="none" style="stroke-width: 2;"></line><line x1="400" x2="380" y1="502.515625" y2="502.515625" stroke="#000000" fill="none" style="stroke-width: 2; marker-end: url(&quot;#markerArrowBlock&quot;);"></line></g><g class="signal"><text x="405" y="530.515625" style="font-size: 16px; font-family: &quot;Andale Mono&quot;, monospace;"><tspan x="405">但没有A_KEY</tspan></text><line x1="380" x2="400" y1="517.515625" y2="517.515625" stroke="#000000" fill="none" style="stroke-width: 2;"></line><line x1="400" x2="400" y1="517.515625" y2="538.515625" stroke="#000000" fill="none" style="stroke-width: 2;"></line><line x1="400" x2="380" y1="538.515625" y2="538.515625" stroke="#000000" fill="none" style="stroke-width: 2; marker-end: url(&quot;#markerArrowBlock&quot;);"></line></g><g class="signal"><text x="84" y="564.515625" style="font-size: 16px; font-family: &quot;Andale Mono&quot;, monospace;"><tspan x="84">没办发 只能原封不动发送[好的！]</tspan></text><line x1="380" x2="36" y1="569.515625" y2="569.515625" stroke="#000000" fill="none" style="stroke-width: 2; marker-end: url(&quot;#markerArrowBlock&quot;);"></line></g><g class="signal"><text x="61" y="602.515625" style="font-size: 16px; font-family: &quot;Andale Mono&quot;, monospace;"><tspan x="61">使用A算法和A_KEY解密 [好的！] = 好的！</tspan></text><line x1="36" x2="56" y1="589.515625" y2="589.515625" stroke="#000000" fill="none" style="stroke-width: 2;"></line><line x1="56" x2="56" y1="589.515625" y2="610.515625" stroke="#000000" fill="none" style="stroke-width: 2;"></line><line x1="56" x2="36" y1="610.515625" y2="610.515625" stroke="#000000" fill="none" style="stroke-width: 2; marker-end: url(&quot;#markerArrowBlock&quot;);"></line></g></svg>