<?xml version="1.0" encoding="utf-8" standalone="no"?><!DOCTYPE svg PUBLIC "-//W3C//DTD SVG 20010904//EN" "http://www.w3.org/TR/2001/REC-SVG-20010904/DTD/svg10.dtd"><svg xmlns="http://www.w3.org/2000/svg" width="312" height="204" xmlns:xlink="http://www.w3.org/1999/xlink"><source><![CDATA[用户->服务端:你好
服务端->用户:你好这是我的<服务器公钥>]]></source><desc></desc><defs><marker viewBox="0 0 5 5" markerWidth="5" markerHeight="5" orient="auto" refX="5" refY="2.5" id="markerArrowBlock"><path d="M 0 0 L 5 2.5 L 0 5 z"></path></marker><marker viewBox="0 0 9.6 16" markerWidth="4" markerHeight="16" orient="auto" refX="9.6" refY="8" id="markerArrowOpen"><path d="M 9.6,8 1.92,16 0,13.7 5.76,8 0,2.286 1.92,0 9.6,8 z"></path></marker></defs><g class="title"></g><g class="actor"><rect x="10" y="20" width="52" height="36" stroke="#000000" fill="#ffffff" style="stroke-width: 2;"></rect><text x="20" y="44" style="font-size: 16px; font-family: &quot;Andale Mono&quot;, monospace;"><tspan x="20">用户</tspan></text></g><g class="actor"><rect x="10" y="148" width="52" height="36" stroke="#000000" fill="#ffffff" style="stroke-width: 2;"></rect><text x="20" y="172" style="font-size: 16px; font-family: &quot;Andale Mono&quot;, monospace;"><tspan x="20">用户</tspan></text></g><line x1="36" x2="36" y1="56" y2="148" stroke="#000000" fill="none" style="stroke-width: 2;"></line><g class="actor"><rect x="214" y="20" width="68" height="36" stroke="#000000" fill="#ffffff" style="stroke-width: 2;"></rect><text x="224" y="44" style="font-size: 16px; font-family: &quot;Andale Mono&quot;, monospace;"><tspan x="224">服务端</tspan></text></g><g class="actor"><rect x="214" y="148" width="68" height="36" stroke="#000000" fill="#ffffff" style="stroke-width: 2;"></rect><text x="224" y="172" style="font-size: 16px; font-family: &quot;Andale Mono&quot;, monospace;"><tspan x="224">服务端</tspan></text></g><line x1="248" x2="248" y1="56" y2="148" stroke="#000000" fill="none" style="stroke-width: 2;"></line><g class="signal"><text x="126" y="87" style="font-size: 16px; font-family: &quot;Andale Mono&quot;, monospace;"><tspan x="126">你好</tspan></text><line x1="36" x2="248" y1="92" y2="92" stroke="#000000" fill="none" style="stroke-width: 2; marker-end: url(&quot;#markerArrowBlock&quot;);"></line></g><g class="signal"><text x="46" y="123" style="font-size: 16px; font-family: &quot;Andale Mono&quot;, monospace;"><tspan x="46">你好这是我的&lt;服务器公钥&gt;</tspan></text><line x1="248" x2="36" y1="128" y2="128" stroke="#000000" fill="none" style="stroke-width: 2; marker-end: url(&quot;#markerArrowBlock&quot;);"></line></g></svg>