<?xml version="1.0" encoding="utf-8" standalone="no"?><!DOCTYPE svg PUBLIC "-//W3C//DTD SVG 20010904//EN" "http://www.w3.org/TR/2001/REC-SVG-20010904/DTD/svg10.dtd"><svg xmlns="http://www.w3.org/2000/svg" width="1032" height="695" xmlns:xlink="http://www.w3.org/1999/xlink"><source><![CDATA[系统->用户:打开浏览器
用户->黑客:你好
黑客-->服务器:你好
服务器-->黑客:这是我的 A数字证书
黑客->黑客:到自身操作系统查找证书，且取得公钥\n（与用户那一样，后详细解析）
黑客->黑客:解析到www.xxx.com传输安全，没有作假，\n公钥的确来自服务器
黑客->黑客: 没有客户解密证书所用的公钥所对应的秘钥\n（有点拗口）所以不能加密内容
黑客->用户:这是我的 A数字证书
用户->系统:查找所用操作系统信任的证书是否存在A机构
系统->系统:存在A机构的证书，且取得公钥
系统->系统:使用公钥解密A数字证书，得到明文\n（明文就是人类能看懂得内容）
系统->系统:内容检验，就是把内容通过指纹算法（hash算法一种）\n加密，与证书中的指纹对比，来判断内容是否被修改过
系统->用户:来源可靠，浏览地址栏显示安全]]></source><desc></desc><defs><marker viewBox="0 0 5 5" markerWidth="5" markerHeight="5" orient="auto" refX="5" refY="2.5" id="markerArrowBlock"><path d="M 0 0 L 5 2.5 L 0 5 z"></path></marker><marker viewBox="0 0 9.6 16" markerWidth="4" markerHeight="16" orient="auto" refX="9.6" refY="8" id="markerArrowOpen"><path d="M 9.6,8 1.92,16 0,13.7 5.76,8 0,2.286 1.92,0 9.6,8 z"></path></marker></defs><g class="title"></g><g class="actor"><rect x="10" y="20" width="52" height="36" stroke="#000000" fill="#ffffff" style="stroke-width: 2;"></rect><text x="20" y="44" style="font-size: 16px; font-family: &quot;Andale Mono&quot;, monospace;"><tspan x="20">系统</tspan></text></g><g class="actor"><rect x="10" y="639.9375" width="52" height="36" stroke="#000000" fill="#ffffff" style="stroke-width: 2;"></rect><text x="20" y="663.9375" style="font-size: 16px; font-family: &quot;Andale Mono&quot;, monospace;"><tspan x="20">系统</tspan></text></g><line x1="36" x2="36" y1="56" y2="639.9375" stroke="#000000" fill="none" style="stroke-width: 2;"></line><g class="actor"><rect x="434" y="20" width="52" height="36" stroke="#000000" fill="#ffffff" style="stroke-width: 2;"></rect><text x="444" y="44" style="font-size: 16px; font-family: &quot;Andale Mono&quot;, monospace;"><tspan x="444">用户</tspan></text></g><g class="actor"><rect x="434" y="639.9375" width="52" height="36" stroke="#000000" fill="#ffffff" style="stroke-width: 2;"></rect><text x="444" y="663.9375" style="font-size: 16px; font-family: &quot;Andale Mono&quot;, monospace;"><tspan x="444">用户</tspan></text></g><line x1="460" x2="460" y1="56" y2="639.9375" stroke="#000000" fill="none" style="stroke-width: 2;"></line><g class="actor"><rect x="598" y="20" width="52" height="36" stroke="#000000" fill="#ffffff" style="stroke-width: 2;"></rect><text x="608" y="44" style="font-size: 16px; font-family: &quot;Andale Mono&quot;, monospace;"><tspan x="608">黑客</tspan></text></g><g class="actor"><rect x="598" y="639.9375" width="52" height="36" stroke="#000000" fill="#ffffff" style="stroke-width: 2;"></rect><text x="608" y="663.9375" style="font-size: 16px; font-family: &quot;Andale Mono&quot;, monospace;"><tspan x="608">黑客</tspan></text></g><line x1="624" x2="624" y1="56" y2="639.9375" stroke="#000000" fill="none" style="stroke-width: 2;"></line><g class="actor"><rect x="934" y="20" width="68" height="36" stroke="#000000" fill="#ffffff" style="stroke-width: 2;"></rect><text x="944" y="44" style="font-size: 16px; font-family: &quot;Andale Mono&quot;, monospace;"><tspan x="944">服务器</tspan></text></g><g class="actor"><rect x="934" y="639.9375" width="68" height="36" stroke="#000000" fill="#ffffff" style="stroke-width: 2;"></rect><text x="944" y="663.9375" style="font-size: 16px; font-family: &quot;Andale Mono&quot;, monospace;"><tspan x="944">服务器</tspan></text></g><line x1="968" x2="968" y1="56" y2="639.9375" stroke="#000000" fill="none" style="stroke-width: 2;"></line><g class="signal"><text x="208" y="87" style="font-size: 16px; font-family: &quot;Andale Mono&quot;, monospace;"><tspan x="208">打开浏览器</tspan></text><line x1="36" x2="460" y1="92" y2="92" stroke="#000000" fill="none" style="stroke-width: 2; marker-end: url(&quot;#markerArrowBlock&quot;);"></line></g><g class="signal"><text x="526" y="123" style="font-size: 16px; font-family: &quot;Andale Mono&quot;, monospace;"><tspan x="526">你好</tspan></text><line x1="460" x2="624" y1="128" y2="128" stroke="#000000" fill="none" style="stroke-width: 2; marker-end: url(&quot;#markerArrowBlock&quot;);"></line></g><g class="signal"><text x="780" y="159" style="font-size: 16px; font-family: &quot;Andale Mono&quot;, monospace;"><tspan x="780">你好</tspan></text><line x1="624" x2="968" y1="164" y2="164" stroke="#000000" fill="none" style="stroke-width: 2; stroke-dasharray: 6, 2; marker-end: url(&quot;#markerArrowBlock&quot;);"></line></g><g class="signal"><text x="724" y="195" style="font-size: 16px; font-family: &quot;Andale Mono&quot;, monospace;"><tspan x="724">这是我的 A数字证书</tspan></text><line x1="968" x2="624" y1="200" y2="200" stroke="#000000" fill="none" style="stroke-width: 2; stroke-dasharray: 6, 2; marker-end: url(&quot;#markerArrowBlock&quot;);"></line></g><g class="signal"><text x="649" y="242.59375" style="font-size: 16px; font-family: &quot;Andale Mono&quot;, monospace;"><tspan x="649">到自身操作系统查找证书，且取得公钥</tspan><tspan dy="1.2em" x="649">（与用户那一样，后详细解析）</tspan></text><line x1="624" x2="644" y1="220" y2="220" stroke="#000000" fill="none" style="stroke-width: 2;"></line><line x1="644" x2="644" y1="220" y2="260.1875" stroke="#000000" fill="none" style="stroke-width: 2;"></line><line x1="644" x2="624" y1="260.1875" y2="260.1875" stroke="#000000" fill="none" style="stroke-width: 2; marker-end: url(&quot;#markerArrowBlock&quot;);"></line></g><g class="signal"><text x="649" y="297.78125" style="font-size: 16px; font-family: &quot;Andale Mono&quot;, monospace;"><tspan x="649">解析到www.xxx.com传输安全，没有作假，</tspan><tspan dy="1.2em" x="649">公钥的确来自服务器</tspan></text><line x1="624" x2="644" y1="275.1875" y2="275.1875" stroke="#000000" fill="none" style="stroke-width: 2;"></line><line x1="644" x2="644" y1="275.1875" y2="315.375" stroke="#000000" fill="none" style="stroke-width: 2;"></line><line x1="644" x2="624" y1="315.375" y2="315.375" stroke="#000000" fill="none" style="stroke-width: 2; marker-end: url(&quot;#markerArrowBlock&quot;);"></line></g><g class="signal"><text x="649" y="352.96875" style="font-size: 16px; font-family: &quot;Andale Mono&quot;, monospace;"><tspan x="649">没有客户解密证书所用的公钥所对应的秘钥</tspan><tspan dy="1.2em" x="649">（有点拗口）所以不能加密内容</tspan></text><line x1="624" x2="644" y1="330.375" y2="330.375" stroke="#000000" fill="none" style="stroke-width: 2;"></line><line x1="644" x2="644" y1="330.375" y2="370.5625" stroke="#000000" fill="none" style="stroke-width: 2;"></line><line x1="644" x2="624" y1="370.5625" y2="370.5625" stroke="#000000" fill="none" style="stroke-width: 2; marker-end: url(&quot;#markerArrowBlock&quot;);"></line></g><g class="signal"><text x="470" y="396.5625" style="font-size: 16px; font-family: &quot;Andale Mono&quot;, monospace;"><tspan x="470">这是我的 A数字证书</tspan></text><line x1="624" x2="460" y1="401.5625" y2="401.5625" stroke="#000000" fill="none" style="stroke-width: 2; marker-end: url(&quot;#markerArrowBlock&quot;);"></line></g><g class="signal"><text x="92" y="432.5625" style="font-size: 16px; font-family: &quot;Andale Mono&quot;, monospace;"><tspan x="92">查找所用操作系统信任的证书是否存在A机构</tspan></text><line x1="460" x2="36" y1="437.5625" y2="437.5625" stroke="#000000" fill="none" style="stroke-width: 2; marker-end: url(&quot;#markerArrowBlock&quot;);"></line></g><g class="signal"><text x="61" y="470.5625" style="font-size: 16px; font-family: &quot;Andale Mono&quot;, monospace;"><tspan x="61">存在A机构的证书，且取得公钥</tspan></text><line x1="36" x2="56" y1="457.5625" y2="457.5625" stroke="#000000" fill="none" style="stroke-width: 2;"></line><line x1="56" x2="56" y1="457.5625" y2="478.5625" stroke="#000000" fill="none" style="stroke-width: 2;"></line><line x1="56" x2="36" y1="478.5625" y2="478.5625" stroke="#000000" fill="none" style="stroke-width: 2; marker-end: url(&quot;#markerArrowBlock&quot;);"></line></g><g class="signal"><text x="61" y="516.15625" style="font-size: 16px; font-family: &quot;Andale Mono&quot;, monospace;"><tspan x="61">使用公钥解密A数字证书，得到明文</tspan><tspan dy="1.2em" x="61">（明文就是人类能看懂得内容）</tspan></text><line x1="36" x2="56" y1="493.5625" y2="493.5625" stroke="#000000" fill="none" style="stroke-width: 2;"></line><line x1="56" x2="56" y1="493.5625" y2="533.75" stroke="#000000" fill="none" style="stroke-width: 2;"></line><line x1="56" x2="36" y1="533.75" y2="533.75" stroke="#000000" fill="none" style="stroke-width: 2; marker-end: url(&quot;#markerArrowBlock&quot;);"></line></g><g class="signal"><text x="61" y="571.34375" style="font-size: 16px; font-family: &quot;Andale Mono&quot;, monospace;"><tspan x="61">内容检验，就是把内容通过指纹算法（hash算法一种）</tspan><tspan dy="1.2em" x="61">加密，与证书中的指纹对比，来判断内容是否被修改过</tspan></text><line x1="36" x2="56" y1="548.75" y2="548.75" stroke="#000000" fill="none" style="stroke-width: 2;"></line><line x1="56" x2="56" y1="548.75" y2="588.9375" stroke="#000000" fill="none" style="stroke-width: 2;"></line><line x1="56" x2="36" y1="588.9375" y2="588.9375" stroke="#000000" fill="none" style="stroke-width: 2; marker-end: url(&quot;#markerArrowBlock&quot;);"></line></g><g class="signal"><text x="136" y="614.9375" style="font-size: 16px; font-family: &quot;Andale Mono&quot;, monospace;"><tspan x="136">来源可靠，浏览地址栏显示安全</tspan></text><line x1="36" x2="460" y1="619.9375" y2="619.9375" stroke="#000000" fill="none" style="stroke-width: 2; marker-end: url(&quot;#markerArrowBlock&quot;);"></line></g></svg>